<?xml version="1.0" standalone="no"?>
<!DOCTYPE svg PUBLIC "-//W3C//DTD SVG 20010904//EN"
 "http://www.w3.org/TR/2001/REC-SVG-20010904/DTD/svg10.dtd">
<svg version="1.0" xmlns="http://www.w3.org/2000/svg"
 width="1280.000000pt" height="1280.000000pt" viewBox="0 0 1280.000000 1280.000000"
 preserveAspectRatio="xMidYMid meet">
<metadata>
Created by potrace 1.14, written by Peter Selinger 2001-2017
</metadata>
<g transform="translate(0.000000,1280.000000) scale(0.100000,-0.100000)"
fill="#000000" stroke="none">
<path d="M6058 12795 c-2 -2 -44 -6 -93 -9 -141 -9 -416 -38 -480 -51 -11 -2
-42 -7 -69 -10 -27 -3 -52 -8 -55 -9 -3 -2 -33 -7 -66 -11 -32 -3 -62 -8 -66
-11 -4 -2 -24 -6 -45 -10 -22 -3 -88 -17 -149 -31 -60 -13 -118 -26 -129 -28
-197 -43 -590 -165 -826 -258 -381 -151 -734 -328 -1065 -536 -108 -68 -180
-116 -368 -248 -106 -74 -293 -222 -440 -348 -256 -220 -585 -561 -792 -820
-22 -27 -42 -52 -45 -55 -9 -8 -195 -262 -231 -315 -19 -27 -37 -54 -42 -60
-58 -77 -205 -318 -317 -520 -113 -203 -275 -554 -359 -780 -29 -77 -59 -157
-67 -177 -18 -48 -132 -420 -138 -450 -3 -13 -16 -68 -30 -123 -25 -94 -78
-347 -91 -425 -3 -19 -7 -46 -10 -60 -3 -14 -7 -47 -11 -74 -3 -28 -7 -53 -9
-56 -2 -3 -6 -33 -10 -65 -3 -33 -8 -73 -10 -90 -2 -16 -7 -61 -10 -100 -3
-38 -8 -83 -10 -100 -27 -217 -27 -924 0 -1140 3 -22 7 -62 10 -90 7 -89 16
-159 25 -220 28 -179 53 -324 60 -355 5 -19 12 -51 15 -70 3 -19 13 -64 21
-100 9 -36 17 -73 19 -83 10 -46 67 -262 71 -269 3 -5 7 -19 10 -33 8 -44 120
-378 172 -510 216 -556 499 -1064 856 -1540 49 -66 92 -122 96 -125 3 -3 21
-25 40 -50 19 -25 37 -47 40 -50 3 -3 30 -34 60 -70 30 -36 60 -70 65 -76 6
-6 44 -49 85 -95 231 -260 581 -577 905 -821 105 -79 458 -318 470 -318 3 0
25 -12 48 -27 102 -67 317 -187 442 -247 386 -185 573 -262 886 -364 421 -137
921 -243 1299 -277 127 -11 176 -15 265 -22 191 -15 820 -8 990 12 22 2 67 7
100 10 106 10 149 15 203 25 29 5 56 9 60 8 4 -1 41 4 82 11 98 17 110 20 140
26 14 3 36 7 50 10 127 24 129 25 270 58 296 69 713 201 905 286 11 5 61 26
110 47 259 108 578 271 825 422 249 152 518 342 715 504 96 79 168 139 205
173 646 582 1118 1200 1504 1972 42 84 76 154 76 157 0 2 16 39 36 81 84 183
208 520 283 770 55 182 147 575 166 705 3 25 15 99 25 165 26 172 42 318 57
515 10 125 10 768 0 860 -3 36 -9 94 -12 130 -3 36 -8 79 -10 95 -2 17 -7 59
-10 95 -4 36 -13 112 -21 170 -12 90 -21 144 -48 290 -27 148 -109 485 -154
630 -59 188 -140 423 -169 490 -8 19 -19 44 -23 55 -62 148 -93 222 -120 280
-50 109 -178 363 -206 406 -13 21 -24 41 -24 44 0 12 -171 291 -262 429 -131
196 -338 473 -444 592 -10 12 -41 48 -69 80 -182 211 -475 498 -710 694 -216
181 -623 472 -790 566 -11 6 -36 20 -55 32 -28 17 -146 82 -295 164 -229 127
-617 292 -935 399 -209 70 -597 175 -715 193 -22 4 -47 8 -55 11 -25 7 -361
63 -420 70 -30 3 -66 8 -80 10 -34 5 -99 12 -195 20 -44 4 -96 9 -115 12 -42
5 -787 13 -792 8z"/>
</g>
</svg>
